HIERARCHY
ROOT Junyuan_V1:Solving:Hips
{
	OFFSET 0.000000 0.000000 0.000000
	CHANNELS 6 Xposition Yposition Zposition Xrotation Yrotation Zrotation
	JOINT Junyuan_V1:Solving:Spine
	{
		OFFSET 0.000000 -11.587388 2.561626
		CHANNELS 6 Xposition Yposition Zposition Xrotation Yrotation Zrotation
		JOINT Junyuan_V1:Solving:Spine1
		{
			OFFSET 0.000000 -9.293384 1.638677
			CHANNELS 6 Xposition Yposition Zposition Xrotation Yrotation Zrotation
			JOINT Junyuan_V1:Solving:Spine2
			{
				OFFSET 0.000000 -9.400841 0.822469
				CHANNELS 6 Xposition Yposition Zposition Xrotation Yrotation Zrotation
				JOINT Junyuan_V1:Solving:Spine3
				{
					OFFSET 0.000000 -9.436749 0.000000
					CHANNELS 6 Xposition Yposition Zposition Xrotation Yrotation Zrotation
					JOINT Junyuan_V1:Solving:Neck
					{
						OFFSET 0.000000 -12.132965 -1.213294
						CHANNELS 6 Xposition Yposition Zposition Xrotation Yrotation Zrotation
						JOINT Junyuan_V1:Solving:Neck1
						{
							OFFSET 0.000000 -6.347839 -0.555364
							CHANNELS 6 Xposition Yposition Zposition Xrotation Yrotation Zrotation
							JOINT Junyuan_V1:Solving:Head
							{
								OFFSET 0.000000 -6.275284 -1.106502
								CHANNELS 6 Xposition Yposition Zposition Xrotation Yrotation Zrotation
								JOINT Junyuan_V1:Solving:HeadEnd
								{
									OFFSET 0.000000 -9.728081 0.000002
									CHANNELS 6 Xposition Yposition Zposition Xrotation Yrotation Zrotation
									End Site
									{
										OFFSET 0.000000 -9.728081 0.000002
									}
								}
							}
						}
					}
					JOINT Junyuan_V1:Solving:RightShoulder
					{
						OFFSET 0.000000 -8.666405 -5.270916
						CHANNELS 6 Xposition Yposition Zposition Xrotation Yrotation Zrotation
						JOINT Junyuan_V1:Solving:RightArm
						{
							OFFSET -19.077805 -0.000008 0.000000
							CHANNELS 6 Xposition Yposition Zposition Xrotation Yrotation Zrotation
							JOINT Junyuan_V1:Solving:RightForeArm
							{
								OFFSET -27.209019 -0.000008 0.000000
								CHANNELS 6 Xposition Yposition Zposition Xrotation Yrotation Zrotation
								JOINT Junyuan_V1:Solving:RightHand
								{
									OFFSET -21.734264 -0.000008 0.000000
									CHANNELS 6 Xposition Yposition Zposition Xrotation Yrotation Zrotation
									JOINT Junyuan_V1:Solving:RightHandThumb1
									{
										OFFSET -3.883522 2.884647 -2.887744
										CHANNELS 6 Xposition Yposition Zposition Xrotation Yrotation Zrotation
										End Site
										{
											OFFSET -5.627335 0.000000 -5.679366
										}
									}
									JOINT Junyuan_V1:Solving:RightHandMiddle1
									{
										OFFSET -10.356049 -0.000004 0.066385
										CHANNELS 6 Xposition Yposition Zposition Xrotation Yrotation Zrotation
										End Site
										{
											OFFSET -7.995132 -0.000004 0.000000
										}
									}
								}
							}
						}
					}
					JOINT Junyuan_V1:Solving:LeftShoulder
					{
						OFFSET 0.000000 -8.666405 -5.270916
						CHANNELS 6 Xposition Yposition Zposition Xrotation Yrotation Zrotation
						JOINT Junyuan_V1:Solving:LeftArm
						{
							OFFSET 19.077805 -0.000008 0.000000
							CHANNELS 6 Xposition Yposition Zposition Xrotation Yrotation Zrotation
							JOINT Junyuan_V1:Solving:LeftForeArm
							{
								OFFSET 27.209019 -0.000008 0.000000
								CHANNELS 6 Xposition Yposition Zposition Xrotation Yrotation Zrotation
								JOINT Junyuan_V1:Solving:LeftHand
								{
									OFFSET 21.734264 -0.000008 0.000000
									CHANNELS 6 Xposition Yposition Zposition Xrotation Yrotation Zrotation
									JOINT Junyuan_V1:Solving:LeftHandThumb1
									{
										OFFSET 3.883522 2.884647 -2.887744
										CHANNELS 6 Xposition Yposition Zposition Xrotation Yrotation Zrotation
										End Site
										{
											OFFSET 5.627335 0.000000 -5.679366
										}
									}
									JOINT Junyuan_V1:Solving:LeftHandMiddle1
									{
										OFFSET 10.356049 -0.000004 0.066385
										CHANNELS 6 Xposition Yposition Zposition Xrotation Yrotation Zrotation
										End Site
										{
											OFFSET 7.995132 -0.000004 0.000000
										}
									}
								}
							}
						}
					}
				}
			}
		}
	}
	JOINT Junyuan_V1:Solving:RightUpLeg
	{
		OFFSET -10.145194 0.000000 0.000000
		CHANNELS 6 Xposition Yposition Zposition Xrotation Yrotation Zrotation
		JOINT Junyuan_V1:Solving:RightLeg
		{
			OFFSET 0.000000 45.059078 -0.000006
			CHANNELS 6 Xposition Yposition Zposition Xrotation Yrotation Zrotation
			JOINT Junyuan_V1:Solving:RightFoot
			{
				OFFSET 0.000000 37.058613 -0.000006
				CHANNELS 6 Xposition Yposition Zposition Xrotation Yrotation Zrotation
				JOINT Junyuan_V1:Solving:RightForeFoot
				{
					OFFSET 0.000000 3.397476 -0.000000
					CHANNELS 6 Xposition Yposition Zposition Xrotation Yrotation Zrotation
					JOINT Junyuan_V1:Solving:RightToeBase
					{
						OFFSET 0.000000 0.000000 -13.305598
						CHANNELS 6 Xposition Yposition Zposition Xrotation Yrotation Zrotation
						JOINT Junyuan_V1:Solving:RightToeBaseEnd
						{
							OFFSET 0.000000 0.000000 -4.190945
							CHANNELS 6 Xposition Yposition Zposition Xrotation Yrotation Zrotation
							End Site
							{
								OFFSET 0.000000 -4.190948 0.000000
							}
						}
					}
				}
			}
		}
	}
	JOINT Junyuan_V1:Solving:LeftUpLeg
	{
		OFFSET 10.145194 0.000000 0.000000
		CHANNELS 6 Xposition Yposition Zposition Xrotation Yrotation Zrotation
		JOINT Junyuan_V1:Solving:LeftLeg
		{
			OFFSET 0.000000 45.059078 -0.000006
			CHANNELS 6 Xposition Yposition Zposition Xrotation Yrotation Zrotation
			JOINT Junyuan_V1:Solving:LeftFoot
			{
				OFFSET 0.000000 37.058613 -0.000006
				CHANNELS 6 Xposition Yposition Zposition Xrotation Yrotation Zrotation
				JOINT Junyuan_V1:Solving:LeftForeFoot
				{
					OFFSET 0.000000 3.397476 -0.000000
					CHANNELS 6 Xposition Yposition Zposition Xrotation Yrotation Zrotation
					JOINT Junyuan_V1:Solving:LeftToeBase
					{
						OFFSET 0.000000 0.000000 -13.305598
						CHANNELS 6 Xposition Yposition Zposition Xrotation Yrotation Zrotation
						JOINT Junyuan_V1:Solving:LeftToeBaseEnd
						{
							OFFSET 0.000000 0.000000 -4.652039
							CHANNELS 6 Xposition Yposition Zposition Xrotation Yrotation Zrotation
							End Site
							{
								OFFSET 0.000000 -4.652039 0.000000
							}
						}
					}
				}
			}
		}
	}
}
MOTION
Frames: 6
Frame Time: 0.041667
-49.717812 71.590836 -86.518127 -131.053353 6.260431 187.343059 -0.000012 -11.587404 2.561645 20.272331 2.909875 1.308981 -0.000008 -9.293399 1.638694 11.140497 0.447430 -0.572392 -0.000002 -9.400841 0.822451 18.268944 2.877369 4.682881 0.000005 -9.436747 -0.000006 -0.695620 -0.884061 3.857575 -0.000000 -12.132966 -1.213307 13.025271 2.323380 -3.109265 -0.000002 -6.347836 -0.555352 -10.283716 -8.652391 6.044069 -0.000000 -6.275298 -1.106510 -5.481976 -0.772584 0.438416 -0.000002 -9.728088 0.000003 -0.000000 0.000000 -0.000000 0.000004 -8.666409 -5.270940 -0.000005 4.309867 12.896887 -19.077801 0.000003 -0.000009 -25.366308 -50.145295 -97.249722 -27.209009 -0.000022 -0.000011 141.182674 -75.145086 142.130322 -21.734264 0.000012 0.000005 -0.901766 -2.889141 -17.342692 -3.883521 2.884624 -2.887744 -0.000000 0.000007 0.000001 -10.356064 -0.000023 0.066386 -0.000003 -0.000000 0.000000 -0.000002 -8.666401 -5.270940 -0.000008 -16.656606 -19.902251 19.077801 -0.000002 -0.000001 -33.316884 59.595525 89.955142 27.209011 -0.000007 -0.000012 207.886916 51.506849 -202.498416 21.734261 -0.000015 -0.000003 0.101887 -0.385633 14.800414 3.883531 2.884648 -2.887750 0.000004 0.000000 0.000002 10.356071 -0.000016 0.066396 0.000001 0.000002 0.000000 -10.145201 -0.000016 0.000016 -51.461678 12.524305 5.728364 0.000010 45.059078 -0.000004 -0.012542 -0.000000 -0.000000 0.000005 37.058605 -0.000026 12.365378 -3.533663 4.608809 0.000004 3.397476 -0.000003 0.000000 0.000000 -0.000001 0.000003 0.000008 -13.305599 5.270912 0.000001 0.000000 0.000002 -0.000000 -4.190945 -0.000000 -0.000000 0.000001 10.145176 -0.000023 0.000005 -50.221346 -14.801889 -2.669089 0.000005 45.059078 -0.000029 4.255589 0.000006 0.000000 0.000011 37.058605 -0.000015 -1.033096 -11.566309 11.708758 -0.000004 3.397476 0.000010 -0.000001 0.000000 0.000001 0.000007 -0.000007 -13.305604 19.885662 0.000005 -0.000001 0.000008 -0.000015 -4.652058 -0.000000 0.000004 0.000001 
-49.747585 71.506157 -86.524620 -130.633201 6.489409 187.407755 0.000019 -11.587392 2.561603 20.337267 2.985668 1.217611 -0.000000 -9.293378 1.638687 11.297227 0.440555 -0.562317 0.000007 -9.400844 0.822464 18.774226 2.395309 4.610227 0.000007 -9.436742 -0.000000 -0.860056 -1.155161 3.733837 -0.000014 -12.132959 -1.213309 12.209279 2.715035 -3.767112 -0.000003 -6.347842 -0.555355 -9.664935 -8.344698 6.645080 -0.000006 -6.275275 -1.106482 -5.419282 -0.761965 0.498175 -0.000010 -9.728073 0.000002 -0.000000 -0.000000 0.000003 -0.000006 -8.666409 -5.270939 -0.000003 5.230289 12.866946 -19.077810 -0.000002 0.000005 -25.180898 -50.295450 -96.633230 -27.209011 -0.000007 -0.000018 142.429812 -74.955766 143.391011 -21.734261 -0.000018 -0.000001 -0.870949 -2.795285 -17.313613 -3.883513 2.884641 -2.887764 0.000001 -0.000007 0.000001 -10.356060 -0.000001 0.066361 0.000000 -0.000003 -0.000004 -0.000013 -8.666397 -5.270940 -0.000007 -16.135540 -20.086572 19.077801 -0.000005 0.000010 -34.441174 59.482929 91.078954 27.209013 -0.000015 -0.000017 207.199635 51.811851 -201.995564 21.734245 -0.000007 -0.000010 0.130523 -0.478438 15.260217 3.883521 2.884635 -2.887775 0.000001 0.000002 -0.000001 10.356063 -0.000026 0.066375 -0.000001 -0.000004 -0.000001 -10.145180 -0.000015 -0.000005 -50.914559 12.791391 5.799671 0.000003 45.059082 -0.000001 -0.097335 -0.000000 0.000001 0.000005 37.058609 -0.000013 12.258165 -3.571666 4.486945 0.000003 3.397484 -0.000001 0.000000 0.000000 -0.000000 0.000003 -0.000001 -13.305614 5.363229 0.000001 -0.000000 0.000002 0.000015 -4.190948 -0.000000 -0.000000 0.000001 10.145205 -0.000003 -0.000021 -49.705011 -14.567993 -2.588028 -0.000007 45.059082 -0.000017 4.219313 0.000002 0.000001 0.000019 37.058613 0.000005 -1.033049 -11.603936 11.697594 0.000007 3.397476 -0.000004 -0.000001 0.000001 -0.000000 0.000020 0.000004 -13.305622 19.866635 0.000006 0.000000 0.000003 -0.000015 -4.652042 0.000001 0.000004 0.000001 
-49.768387 71.398651 -86.535561 -130.237391 6.782138 187.598440 -0.000000 -11.587393 2.561646 20.367691 2.977977 1.002961 0.000008 -9.293381 1.638684 11.474181 0.450217 -0.713095 -0.000001 -9.400842 0.822464 19.220154 2.166504 4.484175 -0.000000 -9.436734 -0.000008 -0.965820 -1.357165 3.902674 -0.000002 -12.132971 -1.213283 11.585709 3.051592 -4.435537 -0.000002 -6.347850 -0.555347 -9.269777 -8.192651 7.195227 -0.000009 -6.275291 -1.106507 -5.383964 -0.755417 0.519499 -0.000000 -9.728081 0.000010 -0.000000 -0.000000 0.000000 0.000013 -8.666409 -5.270934 -0.000003 5.924366 12.786328 -19.077803 0.000003 -0.000010 -25.144913 -50.378741 -96.267637 -27.209015 -0.000020 -0.000010 143.252617 -74.838137 144.220701 -21.734259 -0.000007 -0.000011 -0.861960 -2.773602 -17.271385 -3.883507 2.884638 -2.887763 -0.000002 0.000009 0.000000 -10.356054 -0.000015 0.066373 0.000001 -0.000002 0.000002 0.000005 -8.666409 -5.270935 -0.000004 -16.030772 -19.789975 19.077814 0.000007 0.000004 -35.454399 59.818660 91.458145 27.209000 -0.000019 -0.000012 207.124107 51.885833 -201.951208 21.734232 -0.000017 0.000019 0.194642 -0.719565 15.137123 3.883530 2.884643 -2.887740 -0.000002 -0.000003 -0.000000 10.356064 -0.000018 0.066400 -0.000002 0.000001 0.000000 -10.145187 0.000008 0.000009 -50.320930 13.209777 5.824455 -0.000000 45.059074 -0.000008 -0.234302 -0.000001 -0.000002 -0.000007 37.058632 -0.000009 12.178641 -3.620326 4.394073 -0.000001 3.397476 -0.000004 0.000000 -0.000000 -0.000000 -0.000000 0.000006 -13.305600 5.401703 0.000001 0.000000 -0.000008 0.000008 -4.190942 0.000000 -0.000000 -0.000001 10.145188 0.000016 0.000018 -49.227868 -14.212557 -2.554149 0.000004 45.059078 -0.000007 4.205165 0.000001 0.000000 0.000018 37.058586 -0.000013 -1.057945 -11.627507 11.684647 -0.000014 3.397484 -0.000007 -0.000001 0.000001 0.000001 0.000013 0.000009 -13.305610 19.884441 0.000005 0.000000 0.000005 0.000008 -4.652048 0.000001 0.000003 0.000002 
-49.804962 71.344261 -86.543228 -129.919118 6.919577 187.624094 0.000003 -11.587397 2.561637 20.460665 2.987549 0.921382 0.000005 -9.293386 1.638678 11.560006 0.449164 -0.768463 0.000007 -9.400847 0.822475 19.350798 2.105646 4.411369 0.000002 -9.436742 -0.000004 -0.950040 -1.422324 3.823776 0.000015 -12.132952 -1.213312 11.110594 3.247848 -4.235493 0.000008 -6.347847 -0.555372 -9.068998 -8.172359 7.099625 0.000005 -6.275289 -1.106506 -5.359288 -0.758149 0.530672 0.000015 -9.728088 0.000001 0.000000 0.000000 0.000000 -0.000001 -8.666397 -5.270929 -0.000004 6.255982 12.960195 -19.077801 -0.000004 0.000010 -25.325544 -50.451664 -96.234606 -27.209017 -0.000030 -0.000015 143.435721 -74.764637 144.411304 -21.734240 -0.000002 -0.000002 -0.860291 -2.767511 -17.275633 -3.883512 2.884661 -2.887738 0.000007 0.000005 0.000004 -10.356057 -0.000002 0.066401 0.000008 -0.000002 -0.000001 -0.000003 -8.666393 -5.270930 -0.000007 -15.993607 -19.571116 19.077808 -0.000009 0.000004 -35.649189 59.853166 91.524542 27.209017 -0.000014 -0.000020 206.985509 51.763227 -201.799592 21.734219 -0.000016 0.000001 0.312114 -1.159497 15.066945 3.883522 2.884648 -2.887744 0.000002 0.000000 -0.000000 10.356062 -0.000014 0.066386 0.000001 -0.000004 -0.000002 -10.145190 -0.000021 0.000015 -49.938501 13.363614 5.874069 0.000007 45.059055 -0.000005 -0.263402 0.000000 -0.000000 0.000003 37.058605 -0.000007 12.134155 -3.651331 4.337368 -0.000004 3.397476 -0.000001 0.000000 0.000000 -0.000000 -0.000000 0.000008 -13.305606 5.434478 0.000001 -0.000001 0.000002 -0.000007 -4.190948 0.000001 -0.000000 -0.000001 10.145198 -0.000006 0.000002 -48.847157 -14.070338 -2.498705 0.000001 45.059082 -0.000011 4.186269 0.000001 0.000000 -0.000008 37.058613 -0.000005 -1.065043 -11.665357 11.650550 0.000007 3.397476 -0.000017 0.000000 0.000002 -0.000001 0.000000 0.000006 -13.305600 19.879853 0.000006 -0.000003 -0.000009 -0.000007 -4.652061 0.000001 0.000004 0.000001 
-49.797848 71.267120 -86.551559 -129.657221 7.082747 187.713187 -0.000009 -11.587390 2.561598 20.547393 2.988634 0.807324 0.000003 -9.293388 1.638666 11.634850 0.466219 -0.840036 0.000013 -9.400841 0.822454 19.347831 2.149915 4.318484 0.000000 -9.436749 -0.000001 -1.155892 -1.423907 3.916490 -0.000001 -12.132956 -1.213308 11.396339 3.242058 -4.266876 -0.000001 -6.347834 -0.555336 -9.218145 -8.191901 7.145554 -0.000007 -6.275283 -1.106502 -5.394117 -0.760371 0.529562 -0.000006 -9.728073 -0.000008 0.000000 -0.000000 0.000002 -0.000001 -8.666405 -5.270931 -0.000005 6.198030 12.899825 -19.077808 -0.000012 0.000005 -25.097303 -50.460652 -96.142644 -27.208998 -0.000015 -0.000018 143.134933 -74.760683 144.114259 -21.734240 -0.000022 -0.000000 -0.875933 -2.814973 -17.292258 -3.883528 2.884660 -2.887725 -0.000001 0.000005 0.000003 -10.356065 0.000001 0.066405 -0.000004 0.000002 -0.000001 -0.000007 -8.666393 -5.270932 -0.000004 -15.958131 -19.476231 19.077805 -0.000007 -0.000003 -35.442900 59.959656 91.416420 27.209005 0.000002 -0.000019 207.049207 51.771219 -201.856091 21.734268 -0.000011 0.000004 0.270927 -1.013563 14.966483 3.883492 2.884664 -2.887752 -0.000002 0.000002 0.000001 10.356035 0.000040 0.066369 -0.000000 -0.000001 0.000002 -10.145201 -0.000008 -0.000029 -49.562660 13.598024 5.873525 -0.000003 45.059067 -0.000012 -0.328227 -0.000000 0.000000 -0.000005 37.058605 -0.000012 12.068109 -3.685502 4.286150 0.000001 3.397484 -0.000000 0.000000 0.000000 0.000000 0.000002 0.000010 -13.305606 5.473299 0.000001 -0.000000 0.000001 0.000008 -4.190939 0.000001 -0.000000 -0.000001 10.145189 -0.000014 -0.000017 -48.529437 -13.875144 -2.492057 -0.000008 45.059097 -0.000009 4.167643 -0.000002 0.000000 -0.000009 37.058620 -0.000006 -1.074476 -11.700071 11.665579 -0.000012 3.397476 -0.000003 -0.000000 0.000005 0.000002 -0.000010 0.000017 -13.305607 19.904949 0.000008 -0.000001 -0.000010 0.000001 -4.652044 0.000002 0.000004 -0.000000 
-49.752075 71.170494 -86.554230 -129.444365 7.276182 187.882194 -0.000004 -11.587390 2.561615 20.430260 2.972651 0.726085 0.000009 -9.293396 1.638673 11.724636 0.489623 -0.883242 -0.000007 -9.400840 0.822464 19.650791 2.185385 4.127016 0.000009 -9.436739 0.000001 -1.388125 -1.454039 3.968052 0.000021 -12.132958 -1.213304 11.520426 3.234836 -4.376918 0.000004 -6.347826 -0.555348 -9.376526 -8.221353 7.250401 0.000001 -6.275298 -1.106499 -5.406386 -0.762531 0.535090 -0.000003 -9.728088 0.000005 -0.000000 0.000000 -0.000003 0.000019 -8.666393 -5.270919 -0.000003 6.186720 12.792696 -19.077812 -0.000009 0.000009 -24.927366 -50.496538 -95.941536 -27.208996 -0.000020 -0.000004 143.149700 -74.719742 144.134217 -21.734255 -0.000007 0.000008 -0.872082 -2.802278 -17.293966 -3.883514 2.884656 -2.887738 0.000005 -0.000000 0.000000 -10.356054 -0.000002 0.066396 0.000012 -0.000004 0.000003 0.000011 -8.666389 -5.270920 -0.000005 -15.995371 -19.402551 19.077806 0.000003 0.000014 -35.490646 60.048496 91.463548 27.209011 -0.000002 -0.000028 206.980181 51.819641 -201.810343 21.734268 0.000006 -0.000003 0.247531 -0.931472 14.882677 3.883541 2.884613 -2.887761 0.000003 -0.000003 -0.000005 10.356065 -0.000046 0.066380 0.000002 -0.000002 0.000001 -10.145196 0.000008 0.000008 -49.181108 13.900111 5.813824 -0.000006 45.059086 -0.000009 -0.426879 -0.000000 -0.000000 -0.000006 37.058605 -0.000012 11.960692 -3.682652 4.212927 -0.000002 3.397484 0.000002 0.000000 0.000000 -0.000002 0.000003 -0.000006 -13.305585 5.529505 0.000001 0.000001 0.000004 0.000000 -4.190938 0.000002 0.000000 0.000001 10.145190 0.000012 -0.000007 -48.284786 -13.641893 -2.543744 0.000001 45.059074 -0.000013 4.179088 0.000003 -0.000000 -0.000003 37.058624 0.000002 -1.132379 -11.698804 11.727114 -0.000015 3.397484 -0.000020 -0.000002 -0.000002 -0.000000 -0.000015 0.000013 -13.305608 19.972627 0.000003 -0.000002 -0.000016 -0.000015 -4.652032 0.000001 0.000006 0.000000 
